<?xml version="1.0" encoding="UTF-8"?>
<svg xmlns="http://www.w3.org/2000/svg" xmlns:xlink="http://www.w3.org/1999/xlink" width="50px" height="50px" viewBox="0 0 50 50" version="1.1">
<g id="surface1">
<path style=" stroke:none;fill-rule:nonzero;fill:rgb(0%,0%,0%);fill-opacity:1;" d="M 49.570312 22.816406 L 42.132812 15.910156 L 42.132812 4.597656 L 33.566406 4.597656 L 33.566406 7.957031 L 25 0 L 0.429688 22.816406 C 0.0820312 23.136719 0.0625 23.679688 0.386719 24.027344 C 0.707031 24.371094 1.25 24.390625 1.597656 24.070312 L 4.441406 21.429688 L 4.441406 50 L 45.5625 50 L 45.5625 21.429688 L 48.402344 24.070312 C 48.570312 24.222656 48.777344 24.296875 48.988281 24.296875 C 49.21875 24.296875 49.445312 24.207031 49.613281 24.027344 C 49.9375 23.679688 49.917969 23.136719 49.570312 22.816406 Z M 35.28125 6.308594 L 40.417969 6.308594 L 40.417969 14.320312 L 35.28125 9.546875 Z M 19.859375 48.285156 L 19.859375 30.242188 C 19.859375 29.800781 20.21875 29.441406 20.664062 29.441406 L 29.335938 29.441406 C 29.78125 29.441406 30.140625 29.800781 30.140625 30.242188 L 30.140625 48.285156 Z M 43.847656 48.285156 L 31.851562 48.285156 L 31.851562 30.242188 C 31.851562 28.855469 30.726562 27.726562 29.335938 27.726562 L 20.664062 27.726562 C 19.273438 27.726562 18.144531 28.855469 18.144531 30.242188 L 18.144531 48.285156 L 6.152344 48.285156 L 6.152344 19.839844 L 25 2.335938 L 37.234375 13.699219 L 42.132812 18.246094 L 43.847656 19.839844 Z M 43.847656 48.285156 "/>
</g>
</svg>
