<?xml version="1.0" encoding="UTF-8"?>
<svg xmlns="http://www.w3.org/2000/svg" xmlns:xlink="http://www.w3.org/1999/xlink" width="50px" height="50px" viewBox="0 0 50 50" version="1.1">
<g id="surface1">
<path style=" stroke:none;fill-rule:nonzero;fill:rgb(0%,0%,0%);fill-opacity:1;" d="M 41.035156 7.414062 L 41.035156 3.707031 L 37.328125 3.707031 L 37.328125 0 L 14.019531 0 L 5.257812 8.761719 L 5.257812 42.585938 L 8.964844 42.585938 L 8.964844 46.292969 L 12.671875 46.292969 L 12.671875 50 L 44.742188 50 L 44.742188 7.414062 Z M 13.582031 2.539062 L 13.582031 8.324219 L 7.796875 8.324219 Z M 6.746094 9.8125 L 15.070312 9.8125 L 15.070312 1.488281 L 35.839844 1.488281 L 35.839844 41.097656 L 6.746094 41.097656 Z M 10.453125 42.585938 L 37.328125 42.585938 L 37.328125 5.195312 L 39.546875 5.195312 L 39.546875 44.804688 L 10.453125 44.804688 Z M 43.253906 48.511719 L 14.160156 48.511719 L 14.160156 46.292969 L 41.035156 46.292969 L 41.035156 8.902344 L 43.253906 8.902344 Z M 43.253906 48.511719 "/>
<path style=" stroke:none;fill-rule:nonzero;fill:rgb(0%,0%,0%);fill-opacity:1;" d="M 11.039062 11.628906 L 31.546875 11.628906 L 31.546875 13.117188 L 11.039062 13.117188 Z M 11.039062 11.628906 "/>
<path style=" stroke:none;fill-rule:nonzero;fill:rgb(0%,0%,0%);fill-opacity:1;" d="M 11.039062 15.605469 L 31.546875 15.605469 L 31.546875 17.09375 L 11.039062 17.09375 Z M 11.039062 15.605469 "/>
<path style=" stroke:none;fill-rule:nonzero;fill:rgb(0%,0%,0%);fill-opacity:1;" d="M 11.039062 19.578125 L 31.546875 19.578125 L 31.546875 21.066406 L 11.039062 21.066406 Z M 11.039062 19.578125 "/>
<path style=" stroke:none;fill-rule:nonzero;fill:rgb(0%,0%,0%);fill-opacity:1;" d="M 11.039062 23.554688 L 31.546875 23.554688 L 31.546875 25.042969 L 11.039062 25.042969 Z M 11.039062 23.554688 "/>
<path style=" stroke:none;fill-rule:nonzero;fill:rgb(0%,0%,0%);fill-opacity:1;" d="M 11.039062 27.527344 L 31.546875 27.527344 L 31.546875 29.015625 L 11.039062 29.015625 Z M 11.039062 27.527344 "/>
<path style=" stroke:none;fill-rule:nonzero;fill:rgb(0%,0%,0%);fill-opacity:1;" d="M 11.039062 31.503906 L 31.546875 31.503906 L 31.546875 32.992188 L 11.039062 32.992188 Z M 11.039062 31.503906 "/>
<path style=" stroke:none;fill-rule:nonzero;fill:rgb(0%,0%,0%);fill-opacity:1;" d="M 11.039062 35.480469 L 31.546875 35.480469 L 31.546875 36.964844 L 11.039062 36.964844 Z M 11.039062 35.480469 "/>
</g>
</svg>
