<?xml version="1.0" encoding="UTF-8"?>
<svg xmlns="http://www.w3.org/2000/svg" xmlns:xlink="http://www.w3.org/1999/xlink" width="50px" height="50px" viewBox="0 0 50 50" version="1.1">
<g id="surface1">
<path style=" stroke:none;fill-rule:nonzero;fill:rgb(0%,0%,0%);fill-opacity:1;" d="M 37.96875 36.152344 L 32.183594 36.152344 L 30.230469 32.136719 C 35.664062 31.628906 39.402344 30.578125 39.605469 30.519531 C 40.089844 30.378906 40.375 29.878906 40.246094 29.390625 C 40.21875 29.289062 37.5 18.953125 37.5 13.890625 L 37.5 13.136719 C 37.5 6.054688 31.863281 0.261719 24.839844 0.0078125 C 24.796875 0.00390625 24.753906 0 24.714844 0 L 24.359375 0 C 24.316406 0 24.273438 0.00390625 24.234375 0.0078125 C 17.25 0.261719 11.640625 5.984375 11.574219 13.011719 C 11.574219 13.019531 11.574219 13.03125 11.574219 13.042969 L 11.574219 13.890625 C 11.574219 18.953125 8.855469 29.289062 8.828125 29.394531 C 8.699219 29.878906 8.984375 30.382812 9.46875 30.519531 C 9.671875 30.578125 13.464844 31.644531 18.964844 32.144531 L 17.011719 36.152344 L 12.03125 36.152344 C 8.207031 36.152344 5.09375 39.257812 5.09375 43.078125 L 5.09375 49.074219 C 5.09375 49.585938 5.507812 50 6.019531 50 C 6.53125 50 6.945312 49.585938 6.945312 49.074219 L 6.945312 43.078125 C 6.945312 40.28125 9.226562 38.003906 12.03125 38.003906 L 16.25 38.003906 L 19.773438 45.839844 C 19.898438 46.117188 20.152344 46.316406 20.453125 46.371094 C 20.507812 46.378906 20.5625 46.386719 20.617188 46.386719 C 20.863281 46.386719 21.097656 46.289062 21.273438 46.113281 L 24.535156 42.851562 L 27.800781 46.113281 C 27.976562 46.289062 28.210938 46.386719 28.457031 46.386719 C 28.511719 46.386719 28.566406 46.378906 28.621094 46.371094 C 28.921875 46.316406 29.175781 46.117188 29.300781 45.839844 L 32.824219 38.003906 L 37.96875 38.003906 C 40.773438 38.003906 43.054688 40.28125 43.054688 43.078125 L 43.054688 49.074219 C 43.054688 49.585938 43.46875 50 43.980469 50 C 44.492188 50 44.90625 49.585938 44.90625 49.074219 L 44.90625 43.078125 C 44.90625 39.257812 41.792969 36.152344 37.96875 36.152344 Z M 10.847656 28.960938 C 11.527344 26.277344 13.425781 18.34375 13.425781 13.890625 L 13.425781 13.136719 C 13.425781 6.972656 18.394531 1.949219 24.535156 1.855469 C 30.679688 1.949219 35.648438 6.972656 35.648438 13.136719 L 35.648438 13.890625 C 35.648438 18.34375 37.546875 26.277344 38.222656 28.960938 C 36.203125 29.445312 30.890625 30.554688 24.535156 30.554688 C 18.183594 30.554688 12.871094 29.445312 10.847656 28.960938 Z M 20.910156 43.855469 L 19.074219 39.773438 L 22.691406 42.074219 Z M 28.160156 43.855469 L 26.382812 42.074219 L 30 39.773438 Z M 24.535156 41.054688 L 18.542969 37.242188 L 20.949219 32.296875 C 22.097656 32.363281 23.292969 32.40625 24.535156 32.40625 C 25.824219 32.40625 27.0625 32.359375 28.242188 32.289062 L 30.625 37.179688 Z M 24.535156 41.054688 "/>
</g>
</svg>
