<?xml version="1.0" encoding="UTF-8"?>
<svg xmlns="http://www.w3.org/2000/svg" xmlns:xlink="http://www.w3.org/1999/xlink" width="50px" height="50px" viewBox="0 0 50 50" version="1.1">
<g id="surface1">
<path style=" stroke:none;fill-rule:nonzero;fill:rgb(0%,0%,0%);fill-opacity:1;" d="M 46 12.917969 L 38.898438 12.917969 L 35.5625 4.582031 L 14.4375 4.582031 L 11.101562 12.917969 L 10 12.917969 L 10 8.75 L 5 8.75 L 5 12.917969 L 4 12.917969 C 1.792969 12.917969 0 14.710938 0 16.914062 L 0 41.390625 C 0 43.609375 1.808594 45.417969 4.027344 45.417969 L 45.972656 45.417969 C 48.191406 45.417969 50 43.609375 50 41.390625 L 50 16.914062 C 50 14.710938 48.207031 12.917969 46 12.917969 Z M 6.667969 10.417969 L 8.332031 10.417969 L 8.332031 12.917969 L 6.667969 12.917969 Z M 48.332031 41.390625 C 48.332031 42.691406 47.273438 43.75 45.972656 43.75 L 4.027344 43.75 C 2.726562 43.75 1.667969 42.691406 1.667969 41.390625 L 1.667969 16.914062 C 1.667969 15.628906 2.714844 14.582031 4 14.582031 L 12.230469 14.582031 L 15.5625 6.25 L 34.4375 6.25 L 37.769531 14.582031 L 46 14.582031 C 47.285156 14.582031 48.332031 15.628906 48.332031 16.914062 Z M 48.332031 41.390625 "/>
<path style=" stroke:none;fill-rule:nonzero;fill:rgb(0%,0%,0%);fill-opacity:1;" d="M 25 12.082031 C 16.730469 12.082031 10 18.8125 10 27.082031 C 10 35.355469 16.730469 42.082031 25 42.082031 C 33.269531 42.082031 40 35.355469 40 27.082031 C 40 18.8125 33.269531 12.082031 25 12.082031 Z M 25 40.417969 C 17.648438 40.417969 11.667969 34.433594 11.667969 27.082031 C 11.667969 19.730469 17.648438 13.75 25 13.75 C 32.351562 13.75 38.332031 19.730469 38.332031 27.082031 C 38.332031 34.433594 32.351562 40.417969 25 40.417969 Z M 25 40.417969 "/>
<path style=" stroke:none;fill-rule:nonzero;fill:rgb(0%,0%,0%);fill-opacity:1;" d="M 25 17.082031 C 19.484375 17.082031 15 21.570312 15 27.082031 C 15 32.597656 19.484375 37.082031 25 37.082031 C 30.515625 37.082031 35 32.597656 35 27.082031 C 35 21.570312 30.515625 17.082031 25 17.082031 Z M 25 35.417969 C 20.40625 35.417969 16.667969 31.679688 16.667969 27.082031 C 16.667969 22.488281 20.40625 18.75 25 18.75 C 29.59375 18.75 33.332031 22.488281 33.332031 27.082031 C 33.332031 31.679688 29.59375 35.417969 25 35.417969 Z M 25 35.417969 "/>
<path style=" stroke:none;fill-rule:nonzero;fill:rgb(0%,0%,0%);fill-opacity:1;" d="M 43.332031 16.25 C 41.496094 16.25 40 17.746094 40 19.582031 C 40 21.421875 41.496094 22.917969 43.332031 22.917969 C 45.171875 22.917969 46.667969 21.421875 46.667969 19.582031 C 46.667969 17.746094 45.171875 16.25 43.332031 16.25 Z M 43.332031 21.25 C 42.414062 21.25 41.667969 20.503906 41.667969 19.582031 C 41.667969 18.664062 42.414062 17.917969 43.332031 17.917969 C 44.253906 17.917969 45 18.664062 45 19.582031 C 45 20.503906 44.253906 21.25 43.332031 21.25 Z M 43.332031 21.25 "/>
</g>
</svg>
